<svg width="120" height="120" viewBox="0 0 120 120" fill="none" xmlns="http://www.w3.org/2000/svg">
  <path d="M90.5 70.5C95.1944 70.5 99 66.6944 99 62C99 57.3056 95.1944 53.5 90.5 53.5C85.8056 53.5 82 57.3056 82 62C82 66.6944 85.8056 70.5 90.5 70.5Z" stroke="#3B82F6" stroke-width="3"/>
  <path d="M29.5 70.5C34.1944 70.5 38 66.6944 38 62C38 57.3056 34.1944 53.5 29.5 53.5C24.8056 53.5 21 57.3056 21 62C21 66.6944 24.8056 70.5 29.5 70.5Z" stroke="#3B82F6" stroke-width="3"/>
  <path d="M82 62H38" stroke="#3B82F6" stroke-width="3"/>
  <path d="M90 53.5H80.5L72 37.5H48L39.5 53.5H30" stroke="#3B82F6" stroke-width="3" stroke-linecap="round"/>
  <path d="M39.5 53.5L48 37.5L39.5 53.5Z" stroke="#3B82F6" stroke-width="3"/>
  <path d="M72 37.5L80.5 53.5L72 37.5Z" stroke="#3B82F6" stroke-width="3"/>
  <path d="M30 53.5V70.5" stroke="#3B82F6" stroke-width="3"/>
  <path d="M90 53.5V70.5" stroke="#3B82F6" stroke-width="3"/>
  <path d="M38 45.5H82" stroke="#3B82F6" stroke-width="3" stroke-linecap="round"/>
</svg>
