<?xml version="1.0" encoding="UTF-8"?>
<svg xmlns="http://www.w3.org/2000/svg" viewBox="0 0 48 48">
  <g fill="#000">
    <path d="M12,24 C12,17.373 17.373,12 24,12 C30.627,12 36,17.373 36,24 C36,30.627 30.627,36 24,36 C17.373,36 12,30.627 12,24 Z M14,24 C14,29.523 18.477,34 24,34 C29.523,34 34,29.523 34,24 C34,18.477 29.523,14 24,14 C18.477,14 14,18.477 14,24 Z"/>
    <path d="M37,24 C37,31.18 31.18,37 24,37 C16.82,37 11,31.18 11,24 C11,16.82 16.82,11 24,11 C31.18,11 37,16.82 37,24 Z M39,24 C39,32.284 32.284,39 24,39 C15.716,39 9,32.284 9,24 C9,15.716 15.716,9 24,9 C32.284,9 39,15.716 39,24 Z"/>
    <path d="M24,6 C24,6 24,3 24,3 C24,3 24,6 24,6 Z M24,45 C24,45 24,42 24,42 C24,42 24,45 24,45 Z"/>
    <path d="M6,24 C6,24 3,24 3,24 C3,24 6,24 6,24 Z M45,24 C45,24 42,24 42,24 C42,24 45,24 45,24 Z"/>
  </g>
</svg>
