<?xml version="1.0" encoding="UTF-8"?>
<svg xmlns="http://www.w3.org/2000/svg" viewBox="0 0 48 48">
  <path fill="#0066B1" d="M6,24 C6,14.059 14.059,6 24,6 C33.941,6 42,14.059 42,24 C42,33.941 33.941,42 24,42 C14.059,42 6,33.941 6,24 Z"/>
  <path fill="#FFF" d="M12,24 C12,17.373 17.373,12 24,12 C30.627,12 36,17.373 36,24 C36,30.627 30.627,36 24,36 C17.373,36 12,30.627 12,24 Z"/>
  <path fill="#0066B1" d="M15,19 L33,19 L33,29 L15,29 Z"/>
  <path fill="#FFF" d="M18,22 L30,22 L30,26 L18,26 Z"/>
</svg>
