<?xml version="1.0" encoding="UTF-8"?>
<svg xmlns="http://www.w3.org/2000/svg" viewBox="0 0 48 48">
  <circle cx="24" cy="24" r="22" fill="#fff" stroke="#000" stroke-width="1"/>
  <path fill="#000" d="M24,8 C16.268,8 10,14.268 10,22 C10,29.732 16.268,36 24,36 C31.732,36 38,29.732 38,22 C38,14.268 31.732,8 24,8 Z M24,12 C29.523,12 34,16.477 34,22 C34,27.523 29.523,32 24,32 C18.477,32 14,27.523 14,22 C14,16.477 18.477,12 24,12 Z"/>
  <path fill="#000" d="M24,16 L24,40 L24,16 Z"/>
  <path fill="#000" d="M20,20 L28,20 L20,20 Z"/>
</svg>
