<?xml version="1.0" encoding="UTF-8"?>
<svg xmlns="http://www.w3.org/2000/svg" viewBox="0 0 48 48">
  <circle cx="24" cy="24" r="22" fill="#fff" stroke="#000" stroke-width="1"/>
  <path fill="#0066B1" d="M24,6 C14.059,6 6,14.059 6,24 C6,33.941 14.059,42 24,42 C33.941,42 42,33.941 42,24 C42,14.059 33.941,6 24,6 Z M24,10 C31.732,10 38,16.268 38,24 C38,31.732 31.732,38 24,38 C16.268,38 10,31.732 10,24 C10,16.268 16.268,10 24,10 Z"/>
  <path fill="#0066B1" d="M24,14 L16,24 L24,34 L32,24 Z"/>
  <path fill="#0066B1" d="M14,24 L24,24 L34,24 Z"/>
</svg>
